<mxfile host="65bd71144e">
    <diagram id="yYScvOs6tGtxs1pSEFZZ" name="Page-1">
        <mxGraphModel dx="697" dy="592" grid="1" gridSize="10" guides="1" tooltips="1" connect="1" arrows="1" fold="1" page="1" pageScale="1" pageWidth="850" pageHeight="1100" math="0" shadow="0">
            <root>
                <mxCell id="0"/>
                <mxCell id="1" parent="0"/>
                <mxCell id="2" value="" style="whiteSpace=wrap;html=1;aspect=fixed;" vertex="1" parent="1">
                    <mxGeometry x="100" y="50" width="530" height="530" as="geometry"/>
                </mxCell>
                <mxCell id="3" value="navbar" style="rounded=0;whiteSpace=wrap;html=1;fillColor=#11668F;fontColor=#ffffff;strokeColor=#006EAF;fontFamily=Verdana;" vertex="1" parent="1">
                    <mxGeometry x="100" y="50" width="530" height="60" as="geometry"/>
                </mxCell>
                <mxCell id="4" value="logo" style="ellipse;whiteSpace=wrap;html=1;aspect=fixed;fontFamily=Verdana;fillColor=#FFFFFF;fontColor=#11668F;" vertex="1" parent="1">
                    <mxGeometry x="560" y="55" width="50" height="50" as="geometry"/>
                </mxCell>
                <mxCell id="5" value="nav link" style="rounded=0;whiteSpace=wrap;html=1;fontFamily=Verdana;fontColor=#11668F;fillColor=#FFFFFF;" vertex="1" parent="1">
                    <mxGeometry x="120" y="70" width="70" height="20" as="geometry"/>
                </mxCell>
                <mxCell id="6" value="" style="rounded=0;whiteSpace=wrap;html=1;fontFamily=Verdana;fontColor=#11668F;fillColor=#FFFFFF;" vertex="1" parent="1">
                    <mxGeometry x="100" y="110" width="530" height="130" as="geometry"/>
                </mxCell>
                <mxCell id="7" value="search&amp;nbsp;" style="rounded=1;whiteSpace=wrap;html=1;fontFamily=Verdana;fontColor=#ffffff;fillColor=#647687;strokeColor=#314354;" vertex="1" parent="1">
                    <mxGeometry x="190" y="160" width="370" height="30" as="geometry"/>
                </mxCell>
                <mxCell id="8" value="header&amp;nbsp;" style="text;html=1;strokeColor=none;fillColor=none;align=center;verticalAlign=middle;whiteSpace=wrap;rounded=0;fontFamily=Verdana;fontColor=#11668F;" vertex="1" parent="1">
                    <mxGeometry x="335" y="120" width="60" height="30" as="geometry"/>
                </mxCell>
                <mxCell id="9" value="footer" style="rounded=0;whiteSpace=wrap;html=1;fillColor=#11668F;fontColor=#ffffff;strokeColor=#006EAF;fontFamily=Verdana;" vertex="1" parent="1">
                    <mxGeometry x="100" y="520" width="530" height="60" as="geometry"/>
                </mxCell>
            </root>
        </mxGraphModel>
    </diagram>
</mxfile>